PathFileType	4	(X/Y/Z)	/Users/itak/Documents/Research/Walk-IL/dataset/trc/00021_00004.trc
DataRate	CameraRate	NumFrames	NumMarkers	Units	OrigDataRate	OrigDataStartFrame	OrigNumFrames
100.000000	100.000000	4	53	mm	100.000000	588	785
Frame#	Time	RPSI			LPSI			L3			STRN			T10			C7			CLAV			RBAK			LBAK			LSHO			LUPA			LAEL			LAOL			LWTS			LWPS			LFRA			LIFD			LHPS			LHTS			RSHO			RUPA			RAEL			RAOL			RWTS			RWPS			RFRA			RIFD			RHTS			RHPS			RBHD			LFHD			RFHD			LBHD			LHIP			RHIP			RASI			LASI			LKNE			LTHI			LANK			LTIP			LTOE			LMT1			LMT5			LHEE			RKNE			RTHI			RANK			RTIP			RTOE			RMT1			RMT5			RHEE			
		X1	Y1	Z1	X2	Y2	Z2	X3	Y3	Z3	X4	Y4	Z4	X5	Y5	Z5	X6	Y6	Z6	X7	Y7	Z7	X8	Y8	Z8	X9	Y9	Z9	X10	Y10	Z10	X11	Y11	Z11	X12	Y12	Z12	X13	Y13	Z13	X14	Y14	Z14	X15	Y15	Z15	X16	Y16	Z16	X17	Y17	Z17	X18	Y18	Z18	X19	Y19	Z19	X20	Y20	Z20	X21	Y21	Z21	X22	Y22	Z22	X23	Y23	Z23	X24	Y24	Z24	X25	Y25	Z25	X26	Y26	Z26	X27	Y27	Z27	X28	Y28	Z28	X29	Y29	Z29	X30	Y30	Z30	X31	Y31	Z31	X32	Y32	Z32	X33	Y33	Z33	X34	Y34	Z34	X35	Y35	Z35	X36	Y36	Z36	X37	Y37	Z37	X38	Y38	Z38	X39	Y39	Z39	X40	Y40	Z40	X41	Y41	Z41	X42	Y42	Z42	X43	Y43	Z43	X44	Y44	Z44	X45	Y45	Z45	X46	Y46	Z46	X47	Y47	Z47	X48	Y48	Z48	X49	Y49	Z49	X50	Y50	Z50	X51	Y51	Z51	X52	Y52	Z52	X53	Y53	Z53	

589	5.88	-507.9273986816406	1071.458740234375	690.5086059570312	-396.8967895507812	1052.661010742188	572.556884765625	-447.7044067382812	1126.109252929688	614.7850341796875	-291.4260559082031	1313.86279296875	775.43603515625	-451.7648620605469	1267.653442382812	580.6488037109375	-395.5064392089844	1534.223266601562	605.3359375	-310.2078857421875	1438.472290039062	734.0425415039062	-500.4932861328125	1403.705322265625	613.8258666992188	-335.4835510253906	1487.257202148438	531.8733520507812	-215.6927947998047	1487.285400390625	564.021484375	-183.9395294189453	1362.030517578125	488.1279907226562	-182.7378082275391	1144.941040039062	465.2589416503906	-288.5523986816406	1141.735961914062	479.1254577636719	-183.304931640625	892.9349365234375	571.168701171875	-206.2992248535156	877.08154296875	486.7138977050781	-178.1450805664062	1027.821655273438	471.2150268554688	-193.8361968994141	706.4873046875	607.1885986328125	-191.4942016601562	786.5394287109375	513.2988891601562	-167.8305816650391	795.3239135742188	579.9058837890625	-486.8995666503906	1527.150756835938	768.6984252929688	-560.6315307617188	1468.126098632812	798.7404174804688	-644.6285400390625	1214.048095703125	768.8261108398438	-569.6954956054688	1176.269653320312	713.8310546875	-618.8280639648438	929.2151489257812	830.819580078125	-707.5123901367188	939.7835693359375	806.440673828125	-666.596435546875	1141.377075195312	780.4521484375	-649.12548828125	739.3983764648438	821.9315795898438	-642.2821655273438	817.3868408203125	850.2630004882812	-712.8532104492188	833.9793090820312	828.6854248046875	-354.6396789550781	1719.691040039062	757.5938720703125	-153.7233123779297	1660.436279296875	744.297607421875	-202.2983551025391	1671.59423828125	828.8505859375	-286.707275390625	1708.659057617188	630.2194213867188	-256.3345947265625	937.5386352539062	570.9797973632812	-500.452392578125	966.9501342773438	849.4111938476562	-375.3351440429688	1001.1142578125	864.9005737304688	-216.3945465087891	993.6570434570312	692.5947875976562	-295.1053161621094	504.8772277832031	706.2691650390625	-269.4773864746094	633.9892578125	643.088623046875	-441.2929077148438	39.22409057617188	628.5557250976562	-370.3520202636719	271.2050476074219	638.8414306640625	-400.5771789550781	39.5083122253418	853.7083129882812	-438.2385864257812	47.68693161010742	806.593994140625	-363.9291687011719	41.56159973144531	730.049560546875	-519.52978515625	50.75711441040039	592.5075073242188	-395.1028747558594	548.7778930664062	949.739013671875	-464.4468994140625	814.0961303710938	905.1393432617188	-572.3282470703125	90.07217407226562	835.3486938476562	-434.1918640136719	428.3876953125	935.85302734375	-411.5680847167969	57.39919662475586	1000.4697265625	-421.6851196289062	62.62544250488281	930.7774658203125	-510.3973388671875	69.21559906005859	969.8374633789062	-566.4613037109375	90.99629974365234	764.8662109375	
590	5.89	-504.6849365234375	1071.050903320312	699.195556640625	-396.31640625	1052.398681640625	578.7898559570312	-445.6728820800781	1126.00634765625	622.3649291992188	-286.2083129882812	1313.437255859375	779.5509643554688	-450.5661315917969	1267.567993164062	588.20703125	-393.5177307128906	1534.029174804688	611.9136352539062	-305.6715087890625	1438.130004882812	738.6930541992188	-498.463134765625	1403.614624023438	622.5254516601562	-335.0835876464844	1487.09423828125	537.1588745117188	-214.6010894775391	1487.102416992188	566.8689575195312	-184.4021606445312	1361.905639648438	490.2451477050781	-183.5393829345703	1144.8056640625	466.96728515625	-288.9382019042969	1141.509521484375	483.0462646484375	-181.7579498291016	892.65771484375	572.5023803710938	-206.3594512939453	876.9386596679688	488.494140625	-178.7014770507812	1027.732543945312	472.6760864257812	-191.5175018310547	706.1137084960938	608.331787109375	-191.0593719482422	786.3886108398438	514.6306762695312	-166.0738067626953	795.0214233398438	580.7483520507812	-481.557373046875	1526.994140625	777.0999755859375	-554.5606689453125	1467.895629882812	808.8641357421875	-638.922607421875	1213.54296875	782.0115966796875	-565.4834594726562	1175.722778320312	725.0252075195312	-610.1033935546875	929.174072265625	844.8969116210938	-699.497314453125	939.1301879882812	822.7135009765625	-660.2470703125	1140.764526367188	794.5696411132812	-639.5624389648438	739.2594604492188	837.8593139648438	-632.5428466796875	817.3648681640625	865.5685424804688	-703.74365234375	833.5027465820312	845.7073364257812	-350.2496032714844	1719.279541015625	763.2737426757812	-149.4862213134766	1660.165161132812	747.989990234375	-197.2021636962891	1671.150024414062	832.982421875	-283.5172119140625	1708.478393554688	635.2228393554688	-255.9380340576172	937.4437255859375	573.9461669921875	-493.6159362792969	966.7216796875	858.1171875	-368.1788330078125	1000.883666992188	870.5083618164062	-213.0703430175781	993.318115234375	694.7088012695312	-293.1415405273438	504.2544555664062	706.9500122070312	-268.2398986816406	633.8633422851562	644.3126831054688	-441.275146484375	39.29015350341797	628.542724609375	-369.6252136230469	271.22412109375	639.1791381835938	-400.5442199707031	39.47673797607422	853.753173828125	-438.12744140625	47.75188064575195	806.5360107421875	-363.81298828125	41.37723922729492	729.9540405273438	-519.4762573242188	51.18768310546875	592.543212890625	-383.8746337890625	549.5904541015625	956.7684326171875	-455.8829650878906	814.037109375	913.350830078125	-554.4398193359375	84.95929718017578	860.2576904296875	-420.7017211914062	428.6123352050781	946.7603149414062	-385.7919921875	58.62178802490234	1018.445739746094	-399.1266479492188	62.46110534667969	949.1998291015625	-486.1640930175781	67.79983520507812	992.1079711914062	-551.8213500976562	84.81060028076172	789.5360717773438	
591	5.9	-501.3063049316406	1070.581909179688	707.8119506835938	-395.6633911132812	1052.110595703125	585.0330810546875	-443.6443481445312	1125.897094726562	629.8772583007812	-281.0023498535156	1312.962036132812	783.6123657226562	-449.2969360351562	1267.511840820312	595.8070068359375	-391.4678955078125	1533.820678710938	618.5109252929688	-301.1134338378906	1437.751831054688	743.3087768554688	-496.3255615234375	1403.52685546875	631.2500610351562	-334.6265258789062	1486.911010742188	542.49853515625	-213.5250396728516	1486.887451171875	569.76123046875	-184.894287109375	1361.751098632812	492.4297485351562	-184.3669128417969	1144.652099609375	468.7437133789062	-289.2872924804688	1141.239135742188	487.0193481445312	-180.2141723632812	892.3754272460938	573.8784790039062	-206.4236602783203	876.7688598632812	490.3463439941406	-179.2819519042969	1027.616455078125	474.2080688476562	-189.1485748291016	705.7514038085938	609.5355834960938	-190.6075439453125	786.2149047851562	516.04443359375	-164.3128814697266	794.7347412109375	581.6480102539062	-476.0919189453125	1526.829223632812	785.4505004882812	-548.3472290039062	1467.673217773438	818.92529296875	-633.0557250976562	1213.086303710938	795.1553344726562	-561.3690185546875	1175.179931640625	736.0685424804688	-601.1347045898438	929.1986083984375	858.9083251953125	-691.1919555664062	938.5396728515625	838.9853515625	-653.7523193359375	1140.199584960938	808.619873046875	-629.6150512695312	739.270263671875	853.8983764648438	-622.4921264648438	817.4760131835938	880.9259033203125	-694.2472534179688	833.1170043945312	862.8319702148438	-345.8149108886719	1718.834716796875	768.943359375	-145.1562347412109	1659.859985351562	751.6463012695312	-192.0751037597656	1670.673706054688	837.1046752929688	-280.2770080566406	1708.255004882812	640.2294921875	-255.52392578125	937.3486938476562	576.9649658203125	-486.751953125	966.4375	866.6204833984375	-361.0953369140625	1000.599304199219	875.9804077148438	-209.8347625732422	992.9784545898438	696.8267822265625	-291.224609375	503.641357421875	707.6619262695312	-267.0667724609375	633.7507934570312	645.6068725585938	-441.2693481445312	39.39626312255859	628.5498657226562	-368.9144592285156	271.2365417480469	639.5927124023438	-400.5359802246094	39.44543838500977	853.8052368164062	-438.0247497558594	47.81201171875	806.4927978515625	-363.7120666503906	41.25848388671875	729.875244140625	-519.438720703125	51.64550399780273	592.5779418945312	-372.7940368652344	550.3484497070312	963.453369140625	-447.3884582519531	813.9224243164062	921.3273315429688	-535.6813354492188	80.43199157714844	884.1764526367188	-407.1381225585938	428.9242248535156	957.1272583007812	-359.7535400390625	60.09004592895508	1035.150756835938	-376.1719055175781	62.5875358581543	966.4756469726562	-461.3750915527344	66.8009033203125	1013.097106933594	-536.2057495117188	79.22415161132812	813.3859252929688	
592	5.91	-497.839111328125	1070.075927734375	716.343994140625	-394.9251403808594	1051.801391601562	591.2993774414062	-441.651611328125	1125.781616210938	637.3112182617188	-275.8090209960938	1312.443359375	787.634033203125	-447.9841918945312	1267.477416992188	603.4345703125	-389.34912109375	1533.600463867188	625.1261596679688	-296.5392761230469	1437.338500976562	747.8976440429688	-494.0771789550781	1403.431640625	639.99755859375	-334.1054382324219	1486.707641601562	547.8980712890625	-212.4614868164062	1486.634887695312	572.7079467773438	-185.40869140625	1361.565063476562	494.6874694824219	-185.2095031738281	1144.48291015625	470.5946655273438	-289.6025085449219	1140.925048828125	491.0386047363281	-178.6689910888672	892.0947875976562	575.3107299804688	-206.4826354980469	876.5757446289062	492.2823791503906	-179.8740997314453	1027.475341796875	475.8204040527344	-186.73779296875	705.4011840820312	610.8186645507812	-190.1259918212891	786.0200805664062	517.5569458007812	-162.5417022705078	794.464111328125	582.6226806640625	-470.5077819824219	1526.650634765625	793.748046875	-541.9990844726562	1467.456420898438	828.9097290039062	-627.0380249023438	1212.679809570312	808.2150268554688	-557.4476928710938	1174.64453125	746.871826171875	-591.9490356445312	929.2990112304688	872.8331909179688	-682.6044921875	938.0138549804688	855.1912841796875	-647.1315307617188	1139.685180664062	822.5558471679688	-619.2979736328125	739.4346313476562	870.0401611328125	-612.16357421875	817.7388305664062	896.3212890625	-684.3841552734375	832.8260498046875	879.9985961914062	-341.3376159667969	1718.35546875	774.600341796875	-140.7443695068359	1659.523071289062	755.2681884765625	-186.9192047119141	1670.169799804688	841.2128295898438	-276.9924011230469	1707.990356445312	645.2388305664062	-255.0832061767578	937.2490844726562	580.0404663085938	-479.8629455566406	966.09033203125	874.9418334960938	-354.0734558105469	1000.254821777344	881.3239135742188	-206.6734771728516	992.6350708007812	698.9541015625	-289.3797302246094	503.0446166992188	708.4139404296875	-265.9405822753906	633.64501953125	646.9811401367188	-441.2770385742188	39.54431915283203	628.5798950195312	-368.240478515625	271.24462890625	640.0635375976562	-400.5321044921875	39.41691589355469	853.8587036132812	-437.9309692382812	47.86627578735352	806.464599609375	-363.6163024902344	41.19433975219727	729.812255859375	-519.4241333007812	52.12917709350586	592.6152954101562	-361.8742065429688	551.0546875	969.8385009765625	-438.9544982910156	813.7650756835938	929.0835571289062	-516.1251220703125	76.46539306640625	907.0390014648438	-393.5293273925781	429.3149108886719	966.9786987304688	-333.5016479492188	61.8120002746582	1050.589599609375	-352.872314453125	63.01801300048828	982.6006469726562	-436.101318359375	66.18730163574219	1032.7880859375	-519.6751098632812	74.21734619140625	836.339599609375	
